<?xml version="1.0" encoding="utf-8"?>
<!-- Generator: Adobe Illustrator 21.1.0, SVG Export Plug-In . SVG Version: 6.00 Build 0)  -->
<svg version="1.1" id="Capa_1" xmlns="http://www.w3.org/2000/svg" xmlns:xlink="http://www.w3.org/1999/xlink" x="0px" y="0px"
	 viewBox="0 0 207 201" style="enable-background:new 0 0 207 201;" xml:space="preserve">
<style type="text/css">
	.st0{fill:url(#SVGID_1_);}
	.st1{filter:url(#Adobe_OpacityMaskFilter);}
	.st2{opacity:0.79;mask:url(#SVGID_2_);}
	.st3{fill:#606060;}
	.st4{fill:url(#SVGID_3_);}
	.st5{filter:url(#Adobe_OpacityMaskFilter_1_);}
	.st6{opacity:0.79;mask:url(#SVGID_4_);}
	.st7{fill:url(#SVGID_5_);}
	.st8{filter:url(#Adobe_OpacityMaskFilter_2_);}
	.st9{opacity:0.79;mask:url(#SVGID_6_);}
	.st10{opacity:0.5;}
	.st11{fill:url(#SVGID_7_);}
	.st12{fill:none;stroke:#FFFFFF;stroke-width:0.2076;stroke-miterlimit:10;}
	.st13{filter:url(#Adobe_OpacityMaskFilter_3_);}
	.st14{opacity:0.64;mask:url(#SVGID_8_);}
	.st15{fill:#1B1B1C;}
	.st16{fill:none;stroke:#1B1B1C;stroke-width:0.2076;stroke-miterlimit:10;}
	.st17{opacity:0.23;}
	.st18{fill:url(#SVGID_9_);}
	.st19{fill:none;stroke:#FFFFFF;stroke-width:8.691151e-02;stroke-miterlimit:10;}
	.st20{filter:url(#Adobe_OpacityMaskFilter_4_);}
	.st21{opacity:0.64;mask:url(#SVGID_10_);}
	.st22{fill:none;stroke:#1B1B1C;stroke-width:8.691151e-02;stroke-miterlimit:10;}
	.st23{fill:url(#SVGID_11_);}
	.st24{fill:#F5F5FF;}
	.st25{opacity:0.4;}
	.st26{fill:#1D1D1D;}
	.st27{fill:url(#SVGID_12_);stroke:#FFFFFF;stroke-width:2.032837e-02;stroke-miterlimit:10;}
	.st28{fill:#918CAA;stroke:#FFFFFF;stroke-width:0.7671;stroke-miterlimit:10;}
	.st29{fill:url(#SVGID_13_);stroke:#FFFFFF;stroke-width:1.456245e-02;stroke-miterlimit:10;}
	.st30{fill:#918CAA;stroke:#FFFFFF;stroke-width:0.5452;stroke-miterlimit:10;}
	.st31{fill:url(#SVGID_14_);}
	.st32{fill:none;stroke:#FFFFFF;stroke-width:2.628445e-02;stroke-miterlimit:10;}
	.st33{filter:url(#Adobe_OpacityMaskFilter_5_);}
	.st34{opacity:0.64;mask:url(#SVGID_15_);}
	.st35{fill:#686868;}
	.st36{fill:none;stroke:#686868;stroke-width:2.628445e-02;stroke-miterlimit:10;}
	.st37{opacity:0.46;}
	.st38{fill:#B5B5B5;stroke:#FFFFFF;stroke-width:0.2076;stroke-miterlimit:10;}
	.st39{filter:url(#Adobe_OpacityMaskFilter_6_);}
	.st40{opacity:0.75;mask:url(#SVGID_16_);}
	.st41{fill:#070707;stroke:#070707;stroke-width:0.2076;stroke-miterlimit:10;}
	.st42{fill:#9C9CB7;}
	.st43{fill:#4943BA;}
	.st44{fill:#CECECE;stroke:#FFFFFF;stroke-width:0.2076;stroke-miterlimit:10;}
	.st45{filter:url(#Adobe_OpacityMaskFilter_7_);}
	.st46{opacity:0.75;mask:url(#SVGID_17_);}
	.st47{fill:url(#SVGID_18_);}
	.st48{fill:none;stroke:#FFFFFF;stroke-width:0.1163;stroke-miterlimit:10;}
	.st49{filter:url(#Adobe_OpacityMaskFilter_8_);}
	.st50{opacity:0.64;mask:url(#SVGID_19_);}
	.st51{fill:none;stroke:#1B1B1C;stroke-width:0.1163;stroke-miterlimit:10;}
	.st52{fill:url(#SVGID_20_);stroke:#FFFFFF;stroke-width:1.948555e-02;stroke-miterlimit:10;}
	.st53{fill:#918CAA;stroke:#FFFFFF;stroke-width:0.7296;stroke-miterlimit:10;}
	.st54{fill:#CECECE;stroke:#FFFFFF;stroke-width:0.2778;stroke-miterlimit:10;}
	.st55{filter:url(#Adobe_OpacityMaskFilter_9_);}
	.st56{opacity:0.75;mask:url(#SVGID_21_);}
	.st57{fill:#070707;stroke:#070707;stroke-width:0.2778;stroke-miterlimit:10;}
	.st58{opacity:0.55;}
	.st59{fill:url(#SVGID_22_);}
	.st60{fill:none;stroke:#FFFFFF;stroke-width:7.685273e-02;stroke-miterlimit:10;}
	.st61{filter:url(#Adobe_OpacityMaskFilter_10_);}
	.st62{opacity:0.64;mask:url(#SVGID_23_);}
	.st63{fill:none;stroke:#1B1B1C;stroke-width:7.685273e-02;stroke-miterlimit:10;}
	.st64{fill:url(#SVGID_24_);}
	.st65{filter:url(#Adobe_OpacityMaskFilter_11_);}
	.st66{opacity:0.79;mask:url(#SVGID_25_);}
	.st67{fill:url(#SVGID_26_);}
	.st68{filter:url(#Adobe_OpacityMaskFilter_12_);}
	.st69{opacity:0.64;mask:url(#SVGID_27_);}
	.st70{fill:url(#SVGID_28_);}
	.st71{filter:url(#Adobe_OpacityMaskFilter_13_);}
	.st72{opacity:0.64;mask:url(#SVGID_29_);}
	.st73{fill:url(#SVGID_30_);}
	.st74{display:none;opacity:0.21;fill:#CECECE;stroke:#FFFFFF;stroke-width:0.7671;stroke-miterlimit:10;}
	.st75{fill:#FFFFFF;}
	.st76{fill:url(#SVGID_31_);stroke:#FFFFFF;stroke-width:2.032837e-02;stroke-miterlimit:10;}
	.st77{fill:#B5B5B5;}
	.st78{opacity:0.43;}
	.st79{fill:url(#SVGID_32_);}
	.st80{fill:none;stroke:#FFFFFF;stroke-width:2.171165e-02;stroke-miterlimit:10;}
	.st81{fill:url(#SVGID_33_);}
	.st82{fill:none;stroke:#FFFFFF;stroke-width:2.711420e-02;stroke-miterlimit:10;}
	.st83{fill:url(#SVGID_34_);stroke:#FFFFFF;stroke-width:2.032837e-02;stroke-miterlimit:10;}
	.st84{fill:url(#SVGID_35_);stroke:#FFFFFF;stroke-width:1.456245e-02;stroke-miterlimit:10;}
	.st85{fill:url(#SVGID_36_);}
	.st86{filter:url(#Adobe_OpacityMaskFilter_14_);}
	.st87{opacity:0.64;mask:url(#SVGID_37_);}
	.st88{fill:url(#SVGID_38_);}
	.st89{filter:url(#Adobe_OpacityMaskFilter_15_);}
	.st90{opacity:0.79;mask:url(#SVGID_39_);}
	.st91{fill:none;stroke:#1B1B1C;stroke-width:2.171165e-02;stroke-miterlimit:10;}
	.st92{fill:url(#SVGID_40_);}
	.st93{filter:url(#Adobe_OpacityMaskFilter_16_);}
	.st94{opacity:0.79;mask:url(#SVGID_41_);}
	.st95{fill:url(#SVGID_42_);}
	.st96{filter:url(#Adobe_OpacityMaskFilter_17_);}
	.st97{opacity:0.79;mask:url(#SVGID_43_);}
	.st98{fill:url(#SVGID_44_);}
	.st99{filter:url(#Adobe_OpacityMaskFilter_18_);}
	.st100{opacity:0.79;mask:url(#SVGID_45_);}
	.st101{fill:url(#SVGID_46_);}
	.st102{filter:url(#Adobe_OpacityMaskFilter_19_);}
	.st103{opacity:0.79;mask:url(#SVGID_47_);}
	.st104{fill:url(#SVGID_48_);}
	.st105{filter:url(#Adobe_OpacityMaskFilter_20_);}
	.st106{opacity:0.79;mask:url(#SVGID_49_);}
	.st107{fill:url(#SVGID_50_);}
	.st108{fill:none;stroke:#FFFFFF;stroke-width:0.1317;stroke-miterlimit:10;}
	.st109{filter:url(#Adobe_OpacityMaskFilter_21_);}
	.st110{opacity:0.79;mask:url(#SVGID_51_);}
	.st111{fill:none;stroke:#1B1B1C;stroke-width:0.1317;stroke-miterlimit:10;}
	.st112{fill:url(#SVGID_52_);}
	.st113{filter:url(#Adobe_OpacityMaskFilter_22_);}
	.st114{opacity:0.79;mask:url(#SVGID_53_);}
	.st115{fill:url(#SVGID_54_);}
	.st116{filter:url(#Adobe_OpacityMaskFilter_23_);}
	.st117{opacity:0.79;mask:url(#SVGID_55_);}
	.st118{filter:url(#Adobe_OpacityMaskFilter_24_);}
	.st119{opacity:0.75;mask:url(#SVGID_56_);}
	.st120{fill:url(#SVGID_57_);}
	.st121{fill:none;stroke:#FFFFFF;stroke-width:0.2544;stroke-miterlimit:10;}
	.st122{filter:url(#Adobe_OpacityMaskFilter_25_);}
	.st123{opacity:0.64;mask:url(#SVGID_58_);}
	.st124{fill:none;stroke:#1B1B1C;stroke-width:0.2544;stroke-miterlimit:10;}
	.st125{fill:url(#SVGID_59_);}
	.st126{fill:url(#SVGID_60_);stroke:#FFFFFF;stroke-width:2.490321e-02;stroke-miterlimit:10;}
	.st127{fill:#918CAA;stroke:#FFFFFF;stroke-width:0.9398;stroke-miterlimit:10;}
	.st128{fill:url(#SVGID_61_);}
	.st129{fill:none;stroke:#FFFFFF;stroke-width:3.219969e-02;stroke-miterlimit:10;}
	.st130{filter:url(#Adobe_OpacityMaskFilter_26_);}
	.st131{opacity:0.64;mask:url(#SVGID_62_);}
	.st132{fill:none;stroke:#686868;stroke-width:3.219969e-02;stroke-miterlimit:10;}
	.st133{fill:#B5B5B5;stroke:#FFFFFF;stroke-width:0.2544;stroke-miterlimit:10;}
	.st134{filter:url(#Adobe_OpacityMaskFilter_27_);}
	.st135{opacity:0.75;mask:url(#SVGID_63_);}
	.st136{fill:#070707;stroke:#070707;stroke-width:0.2544;stroke-miterlimit:10;}
	.st137{fill:#B5B5B5;stroke:#FFFFFF;stroke-width:1.3422;stroke-miterlimit:10;}
	.st138{filter:url(#Adobe_OpacityMaskFilter_28_);}
	.st139{opacity:0.75;mask:url(#SVGID_64_);}
	.st140{fill:#070707;stroke:#070707;stroke-width:1.3422;stroke-miterlimit:10;}
	.st141{filter:url(#Adobe_OpacityMaskFilter_29_);}
	.st142{opacity:0.75;mask:url(#SVGID_65_);}
	.st143{fill:#CECECE;stroke:#FFFFFF;stroke-width:2.1672;stroke-miterlimit:10;}
	.st144{filter:url(#Adobe_OpacityMaskFilter_30_);}
	.st145{opacity:0.75;mask:url(#SVGID_66_);}
	.st146{fill:#070707;stroke:#070707;stroke-width:2.1672;stroke-miterlimit:10;}
	.st147{stroke:#000000;stroke-width:3;stroke-miterlimit:10;}
	.st148{fill:url(#SVGID_67_);stroke:#FFFFFF;stroke-width:2.032837e-02;stroke-miterlimit:10;}
	.st149{fill:url(#SVGID_68_);}
	.st150{fill:url(#SVGID_69_);}
	.st151{fill:url(#SVGID_70_);}
	.st152{filter:url(#Adobe_OpacityMaskFilter_31_);}
	.st153{opacity:0.79;mask:url(#SVGID_71_);}
	.st154{fill:url(#SVGID_72_);}
	.st155{filter:url(#Adobe_OpacityMaskFilter_32_);}
	.st156{opacity:0.79;mask:url(#SVGID_73_);}
	.st157{fill:url(#SVGID_74_);}
	.st158{filter:url(#Adobe_OpacityMaskFilter_33_);}
	.st159{opacity:0.79;mask:url(#SVGID_75_);}
	.st160{fill:#CECECE;stroke:#FFFFFF;stroke-width:0.1077;stroke-miterlimit:10;}
	.st161{fill:url(#SVGID_76_);}
	.st162{fill:url(#SVGID_77_);}
	.st163{fill:none;stroke:#FFFFFF;stroke-width:1.375204e-02;stroke-miterlimit:10;}
	.st164{filter:url(#Adobe_OpacityMaskFilter_34_);}
	.st165{opacity:0.64;mask:url(#SVGID_78_);}
	.st166{fill:none;stroke:#686868;stroke-width:1.375204e-02;stroke-miterlimit:10;}
	.st167{fill:none;stroke:#8D8D8E;stroke-width:3;stroke-miterlimit:10;}
	.st168{fill:url(#SVGID_79_);stroke:#FFFFFF;stroke-width:1.375204e-02;stroke-miterlimit:10;}
	.st169{fill:url(#SVGID_80_);}
	.st170{fill:url(#SVGID_81_);}
	.st171{filter:url(#Adobe_OpacityMaskFilter_35_);}
	.st172{opacity:0.64;mask:url(#SVGID_82_);}
	.st173{fill:url(#SVGID_83_);stroke:#FFFFFF;stroke-width:1.375204e-02;stroke-miterlimit:10;}
	.st174{clip-path:url(#SVGID_85_);}
	.st175{fill:url(#SVGID_86_);}
	.st176{fill:url(#SVGID_87_);}
	.st177{filter:url(#Adobe_OpacityMaskFilter_36_);}
	.st178{opacity:0.64;mask:url(#SVGID_88_);}
	.st179{fill:url(#SVGID_89_);stroke:#FFFFFF;stroke-width:1.375204e-02;stroke-miterlimit:10;}
	.st180{fill:url(#SVGID_90_);stroke:#FFFFFF;stroke-width:2.032837e-02;stroke-miterlimit:10;}
	.st181{fill:url(#SVGID_91_);}
	.st182{filter:url(#Adobe_OpacityMaskFilter_37_);}
	.st183{opacity:0.79;mask:url(#SVGID_92_);}
	.st184{fill:url(#SVGID_93_);}
	.st185{filter:url(#Adobe_OpacityMaskFilter_38_);}
	.st186{opacity:0.79;mask:url(#SVGID_94_);}
	.st187{fill:url(#SVGID_95_);}
	.st188{filter:url(#Adobe_OpacityMaskFilter_39_);}
	.st189{opacity:0.79;mask:url(#SVGID_96_);}
	.st190{fill:url(#SVGID_97_);}
	.st191{fill:url(#SVGID_98_);}
	.st192{filter:url(#Adobe_OpacityMaskFilter_40_);}
	.st193{opacity:0.79;mask:url(#SVGID_99_);}
	.st194{fill:url(#SVGID_100_);}
	.st195{filter:url(#Adobe_OpacityMaskFilter_41_);}
	.st196{opacity:0.64;mask:url(#SVGID_101_);}
	.st197{fill:none;stroke:#AFAFAF;stroke-width:1.0426;stroke-miterlimit:10;}
	.st198{fill:#FFFFFF;stroke:#6D6D6D;stroke-width:0.1689;stroke-miterlimit:10;}
	.st199{fill:#CECECE;stroke:#FFFFFF;stroke-width:0.1624;stroke-miterlimit:10;}
	.st200{fill:url(#SVGID_102_);stroke:#FFFFFF;stroke-width:2.032837e-02;stroke-miterlimit:10;}
	.st201{fill:url(#SVGID_103_);stroke:#FFFFFF;stroke-width:1.112710e-02;stroke-miterlimit:10;}
	.st202{fill:url(#SVGID_104_);}
	.st203{filter:url(#Adobe_OpacityMaskFilter_42_);}
	.st204{opacity:0.79;mask:url(#SVGID_105_);}
	.st205{fill:url(#SVGID_106_);}
	.st206{filter:url(#Adobe_OpacityMaskFilter_43_);}
	.st207{opacity:0.79;mask:url(#SVGID_107_);}
	.st208{fill:url(#SVGID_108_);}
	.st209{filter:url(#Adobe_OpacityMaskFilter_44_);}
	.st210{opacity:0.79;mask:url(#SVGID_109_);}
	.st211{fill:url(#SVGID_110_);}
	.st212{fill:#918CAA;stroke:#FFFFFF;stroke-width:0.6987;stroke-miterlimit:10;}
	.st213{filter:url(#Adobe_OpacityMaskFilter_45_);}
	.st214{opacity:0.64;mask:url(#SVGID_111_);}
	.st215{fill:url(#SVGID_112_);}
	.st216{fill:none;stroke:#FFFFFF;stroke-width:6.924961e-03;stroke-miterlimit:10;}
	.st217{filter:url(#Adobe_OpacityMaskFilter_46_);}
	.st218{opacity:0.64;mask:url(#SVGID_113_);}
	.st219{fill:none;stroke:#686868;stroke-width:6.924961e-03;stroke-miterlimit:10;}
	.st220{fill:url(#SVGID_114_);}
	.st221{filter:url(#Adobe_OpacityMaskFilter_47_);}
	.st222{opacity:0.64;mask:url(#SVGID_115_);}
	.st223{fill:url(#SVGID_116_);}
	.st224{filter:url(#Adobe_OpacityMaskFilter_48_);}
	.st225{opacity:0.64;mask:url(#SVGID_117_);}
	.st226{fill:url(#SVGID_118_);}
	.st227{filter:url(#Adobe_OpacityMaskFilter_49_);}
	.st228{opacity:0.64;mask:url(#SVGID_119_);}
	.st229{fill:url(#SVGID_120_);}
	.st230{filter:url(#Adobe_OpacityMaskFilter_50_);}
	.st231{opacity:0.79;mask:url(#SVGID_121_);}
	.st232{fill:url(#SVGID_122_);}
	.st233{filter:url(#Adobe_OpacityMaskFilter_51_);}
	.st234{opacity:0.64;mask:url(#SVGID_123_);}
	.st235{fill:url(#SVGID_124_);stroke:#FFFFFF;stroke-width:2.032837e-02;stroke-miterlimit:10;}
	.st236{fill:url(#SVGID_125_);stroke:#FFFFFF;stroke-width:1.112710e-02;stroke-miterlimit:10;}
	.st237{fill:url(#SVGID_126_);}
	.st238{filter:url(#Adobe_OpacityMaskFilter_52_);}
	.st239{opacity:0.79;mask:url(#SVGID_127_);}
	.st240{fill:url(#SVGID_128_);}
	.st241{filter:url(#Adobe_OpacityMaskFilter_53_);}
	.st242{opacity:0.79;mask:url(#SVGID_129_);}
	.st243{fill:url(#SVGID_130_);}
	.st244{filter:url(#Adobe_OpacityMaskFilter_54_);}
	.st245{opacity:0.79;mask:url(#SVGID_131_);}
	.st246{fill:url(#SVGID_132_);}
	.st247{fill:#6E6CE5;}
	.st248{filter:url(#Adobe_OpacityMaskFilter_55_);}
	.st249{opacity:0.64;mask:url(#SVGID_133_);}
	.st250{fill:url(#SVGID_134_);}
	.st251{filter:url(#Adobe_OpacityMaskFilter_56_);}
	.st252{opacity:0.64;mask:url(#SVGID_135_);}
	.st253{fill:url(#SVGID_136_);}
	.st254{filter:url(#Adobe_OpacityMaskFilter_57_);}
	.st255{opacity:0.64;mask:url(#SVGID_137_);}
	.st256{fill:url(#SVGID_138_);}
	.st257{filter:url(#Adobe_OpacityMaskFilter_58_);}
	.st258{opacity:0.64;mask:url(#SVGID_139_);}
	.st259{fill:url(#SVGID_140_);}
	.st260{filter:url(#Adobe_OpacityMaskFilter_59_);}
	.st261{opacity:0.64;mask:url(#SVGID_141_);}
	.st262{fill:url(#SVGID_142_);stroke:#FFFFFF;stroke-width:1.112710e-02;stroke-miterlimit:10;}
	.st263{fill:url(#SVGID_143_);}
	.st264{filter:url(#Adobe_OpacityMaskFilter_60_);}
	.st265{opacity:0.64;mask:url(#SVGID_144_);}
	.st266{fill:url(#SVGID_145_);}
	.st267{filter:url(#Adobe_OpacityMaskFilter_61_);}
	.st268{opacity:0.64;mask:url(#SVGID_146_);}
	.st269{fill:url(#SVGID_147_);}
	.st270{filter:url(#Adobe_OpacityMaskFilter_62_);}
	.st271{opacity:0.64;mask:url(#SVGID_148_);}
	.st272{fill:url(#SVGID_149_);}
	.st273{filter:url(#Adobe_OpacityMaskFilter_63_);}
	.st274{opacity:0.64;mask:url(#SVGID_150_);}
	.st275{opacity:0.67;fill:#FFFFFF;}
	.st276{fill:url(#SVGID_151_);stroke:#FFFFFF;stroke-width:2.032837e-02;stroke-miterlimit:10;}
	.st277{fill:#918CAA;stroke:#FFFFFF;stroke-width:0.8576;stroke-miterlimit:10;}
</style>
<g>
	<path class="st77" d="M195.9,119.7c-0.2,0.6-0.4,1.1-0.6,1.7c0.1-0.6,0.2-1.2,0.3-2c0.1-0.8,0.3-1.6,0.5-2.6
		c-0.6,2.2-1.3,4.5-2,6.8c-0.8,2.3-1.5,4.7-2.4,7c-1.7,4.7-3.7,9.5-6,14c-2.3,4.5-4.8,8.9-7.4,12.8c-2.6,3.9-5.3,7.5-7.7,10.6
		c-2,2-3.9,3.9-5.3,5.3c-1.4,1.5-2.3,2.6-2.3,3c0,0.9,3.8-1.2,8-5.3c1-0.8,2.1-1.9,2.8-2.5c3.3-2.6,6.7-5.9,9.9-9.8
		c1.7-1.9,3.2-4.1,4.8-6.3c0.7-1.1,1.5-2.3,2.3-3.5c0.8-1.2,1.4-2.4,2.2-3.7c-0.6,0.9-1.2,1.9-1.8,2.9c-0.6,0.9-1.3,1.9-1.9,2.8
		c0.9-1.4,1.8-2.8,2.6-4.3c0.8-1.5,1.7-3,2.4-4.7c-0.3,0.3-0.6,0.7-0.9,1c2.9-5,5.4-11.3,6.9-17.5c1.5-6.2,1.9-12.1,1.6-16.1
		c-0.3-4-1-5.2-1.8-4.2c-0.8,1.1-1.6,4.4-2.9,9.7C196.7,116.6,196.3,118.2,195.9,119.7z"/>
	<path class="st77" d="M186.1,137.3c2.9-5.5,5.3-11.1,7.1-16.9l0.5-1.1l-1.1,0.2l0,0.1c-0.3,5.7-2.7,14.9-6.5,22.8
		c-0.4,0.9-0.8,1.9-1.3,2.8c-0.6,1.4-0.9,2.3-0.9,2.7c0,0.4,0.5,0.1,1.2-0.7c0.4-0.4,0.8-1,1.2-1.7c0.4-0.7,0.9-1.5,1.4-2.4
		c0.8-1.4,1.4-2.8,2.1-4.3c2.6-5.2,5.2-12.3,6.5-19c1.3-6.7,1.3-13,0.5-16.2c-0.4-1.4-0.9-0.2-1.4,0.1c-0.4-0.2-0.6,0.7-1,2.4
		c-0.2,0.8-0.4,1.9-0.5,3c-0.2,1.2-0.4,2.4-0.6,3.8c-0.8,5.5-1.5,10.3-1,10.8c-0.3,0.9-0.6,1.8-0.9,2.7c0.1-0.7,0.2-1.5,0.4-2.2
		c0.1,0.8-0.2,2.5-0.6,4.4c-0.5,1.9-1.1,4.1-1.7,5.9c-0.6,1.8-1.4,3.6-2.1,5.4l2.8-2.3c0.3-1,0.6-1.9,0.9-2.9
		c-0.1,0.2-0.4,0.6-0.4,0.5c1.7-5.6,2.9-10.9,3.8-17.1l0.4-3.9l0.2-3.9c0-1.1-0.2-1.6-0.4-1.5c-0.2,0.1-0.4,0.7-0.7,1.8l-0.8,3.4
		c0.1-0.5,0.3-1,0.4-1.5c-1.3,7.8-3.8,15.8-7.2,22.9c-0.5,1.1-1.1,2.5-1.2,3.1C185.1,138.9,185.5,138.5,186.1,137.3z"/>
	<g>
		<path class="st77" d="M193.1,110.5c0.3-1.2,0.5-2.5,0.6-4.3c0-0.4-0.1-0.7-0.1-0.8c-0.1,0.7-0.3,1.6-0.5,2.5
			C192.9,109.7,192.9,110.6,193.1,110.5z"/>
		<path class="st77" d="M193.7,105.5c0.1-0.6,0.2-1,0.2-1c-0.1,0.2-0.1,0.5-0.2,0.7c0,0.2,0,0.2,0,0.2S193.7,105.3,193.7,105.5z"/>
		<path class="st77" d="M26.3,42.1c7.8-9.9,17.5-18.2,28.5-24.3C65.8,11.6,78,7.7,90.4,6.3C91.3,6.2,91.9,6.1,92,6
			c0-0.1-0.6-0.1-1.4,0c-12.5,1.4-24.7,5.3-35.7,11.4c-11,6.1-20.8,14.4-28.6,24.3c-0.5,0.7-0.9,1.3-0.9,1.4
			C25.4,43.1,25.8,42.7,26.3,42.1z"/>
		<path class="st77" d="M176.2,58.8c-0.3-0.4-0.4-0.4-0.2,0.2c0.2,0.4,0.6,1.2,0.9,1.6c0.3,0.4,0.4,0.3,0.2-0.2
			C176.9,59.9,176.5,59.1,176.2,58.8z"/>
		<path class="st77" d="M167.1,58.8c-0.4-0.6-0.8-1.2-1.2-1.7c-0.4-0.6-0.9-1.1-1.3-1.6c-0.4-0.5-0.8-1-1.3-1.5
			c-0.4-0.5-0.9-0.9-1.3-1.3c-0.3-0.3-0.6-0.7-0.8-1.1c0,0.2-0.5-0.1-1.2-0.8c-7-7.2-15.5-13.4-24.9-17.7c-4.7-2.1-9.7-3.8-14.7-4.9
			c-5.1-1.1-10.2-1.7-15.4-1.7c-0.1,0.1-0.4,0.3-0.9,0.4c-1.4,0.3-4.3,0.5-7.2,0.7l-2.2,0.1c-8.9,0.6-17.7,3-25.8,6.8
			c-1.6,1-3.4,2.1-5.3,3.3c-3.2,2.2-6.1,4.7-8.9,7.4c-2.8,2.7-5.4,5.6-7.7,8.7c0.4-0.3,0.7-0.4,0.8-0.3c0.1,0.2-0.1,0.6-0.5,1.2
			c-0.4,0.6-0.9,1.4-1.6,2.2c-0.7,0.8-1.2,1.7-1.8,2.5c1.7-2.4,3.8-4.7,5.8-6.8c0.3-0.3,0.6-0.6,0.9-0.8c2.2-2.4,4.7-4.6,7.3-6.8
			C69.1,35.6,82.8,30,97,28.5c14.2-1.5,28.6,1.1,41.4,7.5c0.4,0.2,1.1,0.6,1.4,0.8c0.2,0.2,0.1,0.3-0.4,0.1
			c-8.2-3.9-16.4-5.7-24.7-6.3c-8.3-0.6-17,0.1-26.1,2.5c-5.4,1.4-10.6,3.5-15.5,6.1c-4.8,2.6-9.3,5.9-13.4,9.5
			c-4,3.7-7.6,7.9-10.6,12.4c-3,4.6-5.5,9.4-7.3,14.6l-0.8,2l-0.7,2l-0.3,1l-0.3,1l-0.6,2c-0.6,2.7-1.2,5.5-1.4,8.2
			c-0.6,5.5-0.4,11.1,0.4,16.5c1.7,10.8,6.3,21.1,13.5,30c4.9,6,10.7,11,17.1,14.8c6.4,3.8,13.4,6.5,20.6,7.9
			c7.2,1.4,14.7,1.5,21.9,0.4c7.2-1.2,14.2-3.5,20.7-7.1c4.8-2.8,9.2-5.8,12.6-8.2c3.5-2.4,6-4.1,7.3-4c0.8,0.1,0.9,0.8,0.6,2
			c-0.2,0.6-0.5,1.4-1,2.2c-0.5,0.8-1.1,1.8-1.8,2.8c0.7-0.7,1.4-1.4,2.1-2.1c1.2-1.1,2.2-2.2,3.3-3.4c3.1-3.3,5.5-6.3,7.4-8.1
			c0.8-0.8,1.7-1.7,2.4-2.6c0.9-0.8,1.9-1.8,2.8-3c0.5-0.6,0.9-1.2,1.4-1.8c0.4-0.6,0.9-1.2,1.4-1.9c1.8-2.5,3.4-5.1,4.7-6.8l0.4,1
			l0.4-0.9c1.3-2.9,2.3-4.9,3-5.5l0.7,0.5c0.8,0.8,1.2,2.6,1.4,5.4c0.3,0,0.6,0.4,0.7,1.1c1.4-2,2.4-3,2.9-0.9
			c0.6-1.4,0.8-1,0.6,0.7c-0.1,0.6-0.3,1.3-0.4,2c0,0,0,0,0,0c0.4-0.7,0.6-0.9,1-1.9c0.4-1.4,0.6-2.2,0.6-2.2
			c0.5-1.9,0.7-2.8,0.9-3.7c0.2-0.9,0.4-1.7,0.7-3.4c0.3-1.4,0.6-2.6,0.9-3.4c0.2-0.8,0.3-1.2,0.3-1.2c1.6-3.1,1.6-3.2,2.2-2.6
			c0,0.2,0.1,0.4,0.1,0.7c0.4-2.6,0.3-2.8,0.4-3.5c0.1-0.7,0.3-1.3,0.3-1.3c0.3-0.1,0.3-0.1,0.5-0.6c0.1-0.1,0.2-0.1,0.2-0.1
			c0.3,1.5,0.3,1.5,0.4,1.5c0.1,0.4,0.2,0.9,0.2,0.9c0.1,1.8,0.1,2.5,0.1,2.8c-1.1,3.7-1.1,3.7-1.1,3.7c0.2,0.8,0.2,0.8,0.2,0.8
			c-0.5,0.8-0.5,0.8-0.5,0.8c0.4-0.5,0.4-0.5,0.4-0.5c-0.5,1.9-0.5,1.9-0.5,1.9c0.6-2.1,0.6-2.1,0.6-2.1c-0.3,2.2-0.5,3.4-0.6,4.1
			c-0.2,0.8-0.2,1.2-0.4,2.1c-0.3,1.9-0.6,3.4-0.7,3.6c0.1-0.1,0.2-0.1,0.2-0.1c-0.6,2.4-0.9,3.5-1.3,4.7c-0.4,1.1-0.7,2.3-1.5,4.5
			c-0.2,0.4-0.4,0.7-0.6,1c-0.1,0.5-0.3,1.3-0.6,2.2c-0.3,0.8-0.6,1.5-1,2.3c-0.1,0.2-0.1,0.4-0.1,0.5c0,0,0,0,0,0
			c-0.2,0.8-0.4,1.4-0.7,2c-0.1,0.4-0.1,0.4-0.1,0.4s0,0,0,0c-0.5,1.4-1.1,3.4-3.5,8.4c-0.8,1.3-1.5,2.4-2.3,3.5
			c0.3-0.3,0.5-0.6,0.8-0.9c0.5-0.6,0.4,0.2,0.6-0.2c6-8.6,10.6-19.4,13-30.6c0.2-1,0.4-2,0.6-2.7c0.2-0.8,0.4-1.3,0.5-1.4
			c0.3-0.2,0.4,1.3,0,3.4c-0.6,5.8-1.9,11.9-4.1,18c-2.1,6.1-5.1,12-8.7,17.6c-7.2,11.2-17.1,20.4-27.5,26.6
			c-5.3,3.4-11,6.3-16.9,8.6c0.3-0.1,0.6-0.1,0.9-0.2c-1.6,0.6-3.1,1.1-4.7,1.6c-0.2,0.1-0.3,0.1-0.5,0.2c1.2-0.2,2.5-0.5,3.7-0.8
			c0.8-0.3,1.6-0.5,2.5-0.9c13.6-5.8,25.2-13.3,35.2-24c5.3-5.7,9.6-11.1,13.5-17.5c0.9-1.7,1.7-2.8,1.8-2.5c0.1,0.3-0.6,2-1.5,3.7
			c-2.9,5.6-6.5,11.1-10.7,16.2c-4.2,5.1-9,9.7-14,13.6c-5.1,4-10.5,7.2-15.8,9.8c-5.3,2.5-10.6,4.3-15.5,5.4
			c-2.1,0.8-4.3,1.3-6.3,1.8c-2.1,0.4-4,0.8-5.8,1c-0.1,0-0.1,0-0.2,0c1,0,1.8-0.1,2.8-0.1c-0.8,0.2-1.6,0.3-2.3,0.4
			c-0.7,0.1-1.3,0.1-2,0.2c-1.3,0.1-2.5,0.2-4,0.3c0.4,0.2,0.8,0.3,1.2,0.5c-8.3,1-16.9,1.2-25.3,0.1c-8.4-1.1-16.5-3.3-23.5-6.5
			c-0.6-0.2-1.1-0.5-1.6-0.7c-6.2-2.1-12.5-4.7-19-9.1c1.1,0.8,2.2,1.5,3.3,2.3c1.1,0.8,2.2,1.4,3.3,2.1c-5.1-2.6-9.9-5.7-14.6-9.7
			c-3.2-2.7-6.2-5.7-9-8.9c-2.7-3.2-5.2-6.5-7.2-9.9c-4.1-6.6-6.6-13-7.5-17.2C8.8,124.1,6,108.1,7.2,92.5c0.2-3.9,0.8-7.8,1.5-11.7
			c0.8-3.8,1.7-7.7,3-11.4c1.2-3.8,2.7-7.4,4.3-11c0.9-1.8,1.7-3.6,2.7-5.3l1.4-2.6l1.6-2.5c0.8-1.4,1.8-2.5,2.1-2.6
			c0.3,0-0.2,0.9-1.1,2.3c-11.9,19-16.9,42.5-13.5,64.7c-0.6-4.7-0.7-9.4-0.6-14.1c0.1-4.7,0.7-9.4,1.5-14c0.8-4.6,2.1-9.2,3.6-13.7
			c0.7-2.3,1.6-4.5,2.5-6.7c1-2.2,1.9-4.3,3.1-6.5l0.8-1.6l0.9-1.6c0.6-1.1,1.2-2.2,1.8-3.2c0.6-1,1.3-2,2-3c0.7-1,1.4-1.9,2.2-2.9
			c7.2-9.8,16.2-18,26.3-24.2c10.2-6.3,21.6-10.7,33.9-12.8C97.9,6.3,108,6.2,118,7.8c5,0.7,9.9,1.9,14.8,3.5
			c4.9,1.6,9.7,3.6,14.5,6c6.7,3.5,12.9,7.7,18.5,12.5c5.6,4.8,10.5,10.3,14.8,16.2c4.3,5.9,7.8,12.4,10.6,19.3
			C194,72,196,79.3,197,86.9c0.1,1,0.3,2,0.3,2.9c0.1,0.9,0.1,1.8,0.1,2.5c0,1.5-0.2,2.6-0.4,2.8c-0.2,0.3-0.5-0.3-0.8-1.5
			c-0.3-1.1-0.5-2.9-0.8-4.8c-2.2-15.5-8.3-30.2-17.5-42.5c-2.2-3.1-4.8-6-7.4-8.8c-2.7-2.7-5.4-5.4-8.4-7.8
			c-5.9-4.9-12.4-9-19.3-12.2c-13.8-6.6-29.3-9.6-44.6-8.9c-7.7,0.3-15.4,1.7-22.8,4c-7.4,2.3-14.6,5.5-21.4,9.6
			c-5.8,3.6-11.1,7.7-15.9,12.3c0.1,0,0.2,0,0.3,0c0.2,0.2-0.1,0.8-0.7,1.7C43,31,49.1,26.3,55.6,22.6c8.9-5.7,18.8-9.7,29.4-11.9
			c10.6-2.2,21.7-2.3,32.8-0.2c3.8,0.7,7.5,1.7,11,2.9c3.5,1.2,6.9,2.6,10.1,4.2c6.5,3.2,12.4,7.1,17.8,11.6
			C171,40,182.2,55,188,72.4c0.3,0.7,0.4,1.4,0.4,1.7c0,0.3-0.2-0.1-0.5-0.8c-4.3-11.8-11-22.9-19.8-32.2c1.1,1.7,1.6,2.9,1.1,3
			c-0.5,0.2-1.8-0.7-3.5-2.3l2.7,3.2c0.9,1.1,1.7,2.2,2.6,3.3c1,1.4,1.6,2.6,1.4,2.7c-0.2,0.1-1.2-0.9-2.1-2.3
			c-6.7-9.2-15.3-16.9-25.1-22.7c-5.9-3.3-12.2-6-18.8-7.9c-6.5-1.9-13.3-2.9-20-3.3c1.9,0.4,3.2,0.9,3.8,1.4l0,0
			c2.1,0.3,4.1,0.5,6.1,0.8c18.8,2.6,37,12.2,49.9,27c6.5,7.3,11.8,15.9,15.4,25.1c3.6,9.3,5.5,19.2,5.6,29.1c0,0.8,0,1.4-0.2,1.4
			c-0.1,0-0.2-0.6-0.2-1.3c-0.1-12-2.8-23.9-7.9-34.7c0,0,0,0,0,0c0.1,0.5,0.1,0.6-0.2,0.1c-0.2-0.4-0.6-1.2-0.8-1.7
			c-0.2-0.5-0.1-0.5,0.2-0.2c-5-9.9-11.9-18.8-20.3-25.9c-8.3-7.1-18-12.5-28.2-15.8c9.4,3.3,18.2,8.3,25.8,14.7
			c7.7,6.4,14.1,14.2,19,22.8c0.6,0.9,1.2,1.8,1.7,2.8c0.5,0.9,1.1,1.9,1.6,2.9c0.3,0.5,0.5,1.3,0.6,1.5c0,0.2-0.3-0.2-0.6-0.7
			c-0.3-0.5-0.5-1.1-0.9-1.6c0.8,1.7,1.4,3.3,1.7,4.4c0.3,1.2,0.3,1.9,0,2c-0.3,0-0.8-0.7-1.5-1.8c-0.3-0.6-0.7-1.2-1.1-2
			c-0.4-0.7-0.8-1.6-1.2-2.4c-4.7-9.1-11-17.3-18.5-24.1l-2.6-2.1c-0.9-0.6-1.8-1.2-2.7-1.9C163.7,45,173,58.3,177.9,73
			c0.4,1.3,0.6,2.4,0.5,2.5c-0.2,0.1-0.7-0.9-1.1-2.1c-2.4-6.3-5.7-12.3-9.5-17.8c-4-5.5-8.5-10.5-13.7-14.9
			c-10.3-8.8-22.8-14.8-35.9-17.4c-8.8-1-17.7-0.6-26.2,1.4c1.1-0.1,2.2-0.3,3.3-0.3c0.9-0.1,1.8-0.1,2.6-0.2c0.9,0,1.8-0.1,2.6-0.1
			l1.3,0l1.3,0c0.9,0,1.7,0,2.6,0c3.4,0.2,6.8,0.4,10.1,0.9c6.6,0.9,13,2.8,19.1,5.3c3,1.3,6,2.7,8.9,4.4c2.9,1.6,5.7,3.5,8.3,5.6
			c2.7,2,5.2,4.3,7.6,6.8c2.4,2.5,4.7,5.1,6.7,8c0.4,0.6,0.7,1.1,0.7,1.2c0,0.1-0.4-0.2-0.8-0.8c-2-2.8-4.2-5.4-6.5-7.8
			c-2.4-2.4-4.8-4.6-7.4-6.6c-5.1-4.1-10.8-7.3-16.9-10.1c-10.2-4.5-20.7-6.4-30.8-6.2c10.3,0.3,20.4,2.5,29.8,6.6
			c9.4,4.1,17.9,10.1,25,17.8c0.6,0.7,1.2,1.4,1.5,1.9c0.1,0,0.2,0.1,0.4,0.3c1.8,1.9,3.7,4.1,5.4,6.5c0.3,0.4,0.7,1.1,0.8,1.4
			C167.7,59.6,167.5,59.3,167.1,58.8z M154.4,171.1c0.2-0.1,0.4-0.2,0.6-0.3c-0.6,0.3-1.2,0.7-1.8,1.1c0,0,0,0-0.4,0.1
			c-0.4,0.1-1.1,0.4-2.5,0.9c0,0,0.5-0.2,1.3-0.6C152.3,172,153.3,171.5,154.4,171.1z M176.4,141.9
			C176.4,141.9,176.4,141.9,176.4,141.9c0.3-0.3,0.6-0.6,0.9-0.9c0.2-0.2,0.3-0.4,0.3-0.4C177.1,141.2,176.7,141.6,176.4,141.9z
			 M9.6,94.2c-0.9,13.3,1,26.7,5.4,39.3c-1.2-3-2.3-6.1-3.2-9.2c-1.2-4.9-2-9.9-2.4-14.9C9.1,104.3,9.1,99.3,9.6,94.2z M174.4,155.4
			c-2.4,2.5-4.6,4.2-6.7,5.7c-0.7,0.8-1.5,1.7-2.3,2.6c-0.8,0.8-1.7,1.6-2.6,2.5c-4.7,4.3-9.8,8-15.2,11c0.8-0.2-0.5,0.5-1.1,0.9
			c-0.7,0.4-1.3,0.8-2,1.2c5.9-3,11.4-6.6,16.7-10.8C166,164.6,170.7,159.8,174.4,155.4z M191.2,112.8c0.1-0.2,0.1-0.3,0.2-0.5
			c0,0,0,0,0.2,1.3C191.6,113.5,191.4,113.2,191.2,112.8z M190.7,110.8c-0.1,0.3-0.1,0.6-0.2,0.9C190.5,111.3,190.6,111,190.7,110.8
			z M188.8,119.1c0.2-0.5,0.4-0.8,0.5-1.1C188.8,119.1,188.8,119.1,188.8,119.1z M175.8,121.6c0.4,1.1,0.8,2.2,1.1,3.4l-0.4-1.8
			l-0.5-1.8L175.8,121.6z"/>
	</g>
</g>
</svg>
