<?xml version="1.0" encoding="utf-8"?>
<!-- Generator: Adobe Illustrator 21.1.0, SVG Export Plug-In . SVG Version: 6.00 Build 0)  -->
<svg version="1.1" id="Capa_1" xmlns="http://www.w3.org/2000/svg" xmlns:xlink="http://www.w3.org/1999/xlink" x="0px" y="0px"
	 viewBox="0 0 92 92" style="enable-background:new 0 0 92 92;" xml:space="preserve">
<style type="text/css">
	.st0{fill:url(#SVGID_1_);}
	.st1{filter:url(#Adobe_OpacityMaskFilter);}
	.st2{opacity:0.79;mask:url(#SVGID_2_);}
	.st3{fill:#606060;}
	.st4{fill:url(#SVGID_3_);}
	.st5{filter:url(#Adobe_OpacityMaskFilter_1_);}
	.st6{opacity:0.79;mask:url(#SVGID_4_);}
	.st7{fill:url(#SVGID_5_);}
	.st8{filter:url(#Adobe_OpacityMaskFilter_2_);}
	.st9{opacity:0.79;mask:url(#SVGID_6_);}
	.st10{opacity:0.5;}
	.st11{fill:url(#SVGID_7_);}
	.st12{fill:none;stroke:#FFFFFF;stroke-width:0.2076;stroke-miterlimit:10;}
	.st13{filter:url(#Adobe_OpacityMaskFilter_3_);}
	.st14{opacity:0.64;mask:url(#SVGID_8_);}
	.st15{fill:#1B1B1C;}
	.st16{fill:none;stroke:#1B1B1C;stroke-width:0.2076;stroke-miterlimit:10;}
	.st17{opacity:0.23;}
	.st18{fill:url(#SVGID_9_);}
	.st19{fill:none;stroke:#FFFFFF;stroke-width:8.691151e-02;stroke-miterlimit:10;}
	.st20{filter:url(#Adobe_OpacityMaskFilter_4_);}
	.st21{opacity:0.64;mask:url(#SVGID_10_);}
	.st22{fill:none;stroke:#1B1B1C;stroke-width:8.691151e-02;stroke-miterlimit:10;}
	.st23{fill:url(#SVGID_11_);}
	.st24{fill:#F5F5FF;}
	.st25{opacity:0.4;}
	.st26{fill:#1D1D1D;}
	.st27{fill:url(#SVGID_12_);stroke:#FFFFFF;stroke-width:2.032837e-02;stroke-miterlimit:10;}
	.st28{fill:#918CAA;stroke:#FFFFFF;stroke-width:0.7671;stroke-miterlimit:10;}
	.st29{fill:url(#SVGID_13_);stroke:#FFFFFF;stroke-width:1.456245e-02;stroke-miterlimit:10;}
	.st30{fill:#918CAA;stroke:#FFFFFF;stroke-width:0.5452;stroke-miterlimit:10;}
	.st31{fill:url(#SVGID_14_);}
	.st32{fill:none;stroke:#FFFFFF;stroke-width:2.628445e-02;stroke-miterlimit:10;}
	.st33{filter:url(#Adobe_OpacityMaskFilter_5_);}
	.st34{opacity:0.64;mask:url(#SVGID_15_);}
	.st35{fill:#686868;}
	.st36{fill:none;stroke:#686868;stroke-width:2.628445e-02;stroke-miterlimit:10;}
	.st37{opacity:0.46;}
	.st38{fill:#B5B5B5;stroke:#FFFFFF;stroke-width:0.2076;stroke-miterlimit:10;}
	.st39{filter:url(#Adobe_OpacityMaskFilter_6_);}
	.st40{opacity:0.75;mask:url(#SVGID_16_);}
	.st41{fill:#070707;stroke:#070707;stroke-width:0.2076;stroke-miterlimit:10;}
	.st42{fill:#9C9CB7;}
	.st43{fill:#4943BA;}
	.st44{fill:#CECECE;stroke:#FFFFFF;stroke-width:0.2076;stroke-miterlimit:10;}
	.st45{filter:url(#Adobe_OpacityMaskFilter_7_);}
	.st46{opacity:0.75;mask:url(#SVGID_17_);}
	.st47{opacity:0.55;}
	.st48{fill:url(#SVGID_18_);}
	.st49{fill:none;stroke:#FFFFFF;stroke-width:7.685273e-02;stroke-miterlimit:10;}
	.st50{filter:url(#Adobe_OpacityMaskFilter_8_);}
	.st51{opacity:0.64;mask:url(#SVGID_19_);}
	.st52{fill:none;stroke:#1B1B1C;stroke-width:7.685273e-02;stroke-miterlimit:10;}
	.st53{fill:url(#SVGID_20_);}
	.st54{filter:url(#Adobe_OpacityMaskFilter_9_);}
	.st55{opacity:0.79;mask:url(#SVGID_21_);}
	.st56{fill:url(#SVGID_22_);}
	.st57{filter:url(#Adobe_OpacityMaskFilter_10_);}
	.st58{opacity:0.64;mask:url(#SVGID_23_);}
	.st59{fill:url(#SVGID_24_);}
	.st60{filter:url(#Adobe_OpacityMaskFilter_11_);}
	.st61{opacity:0.64;mask:url(#SVGID_25_);}
	.st62{fill:url(#SVGID_26_);}
	.st63{display:none;opacity:0.21;fill:#CECECE;stroke:#FFFFFF;stroke-width:0.7671;stroke-miterlimit:10;}
	.st64{fill:#FFFFFF;}
	.st65{fill:url(#SVGID_27_);stroke:#FFFFFF;stroke-width:2.032837e-02;stroke-miterlimit:10;}
	.st66{opacity:0.43;}
	.st67{fill:url(#SVGID_28_);}
	.st68{fill:none;stroke:#FFFFFF;stroke-width:2.171165e-02;stroke-miterlimit:10;}
	.st69{fill:url(#SVGID_29_);stroke:#FFFFFF;stroke-width:2.032837e-02;stroke-miterlimit:10;}
	.st70{fill:url(#SVGID_30_);stroke:#FFFFFF;stroke-width:1.456245e-02;stroke-miterlimit:10;}
	.st71{fill:url(#SVGID_31_);}
	.st72{filter:url(#Adobe_OpacityMaskFilter_12_);}
	.st73{opacity:0.64;mask:url(#SVGID_32_);}
	.st74{fill:url(#SVGID_33_);}
	.st75{filter:url(#Adobe_OpacityMaskFilter_13_);}
	.st76{opacity:0.79;mask:url(#SVGID_34_);}
	.st77{fill:none;stroke:#1B1B1C;stroke-width:2.171165e-02;stroke-miterlimit:10;}
	.st78{fill:url(#SVGID_35_);}
	.st79{filter:url(#Adobe_OpacityMaskFilter_14_);}
	.st80{opacity:0.79;mask:url(#SVGID_36_);}
	.st81{fill:url(#SVGID_37_);}
	.st82{filter:url(#Adobe_OpacityMaskFilter_15_);}
	.st83{opacity:0.79;mask:url(#SVGID_38_);}
	.st84{fill:url(#SVGID_39_);}
	.st85{filter:url(#Adobe_OpacityMaskFilter_16_);}
	.st86{opacity:0.79;mask:url(#SVGID_40_);}
	.st87{fill:url(#SVGID_41_);}
	.st88{filter:url(#Adobe_OpacityMaskFilter_17_);}
	.st89{opacity:0.79;mask:url(#SVGID_42_);}
	.st90{fill:url(#SVGID_43_);}
	.st91{filter:url(#Adobe_OpacityMaskFilter_18_);}
	.st92{opacity:0.79;mask:url(#SVGID_44_);}
	.st93{fill:url(#SVGID_45_);}
	.st94{filter:url(#Adobe_OpacityMaskFilter_19_);}
	.st95{opacity:0.79;mask:url(#SVGID_46_);}
	.st96{fill:url(#SVGID_47_);}
	.st97{filter:url(#Adobe_OpacityMaskFilter_20_);}
	.st98{opacity:0.79;mask:url(#SVGID_48_);}
	.st99{fill:url(#SVGID_49_);}
	.st100{filter:url(#Adobe_OpacityMaskFilter_21_);}
	.st101{opacity:0.79;mask:url(#SVGID_50_);}
	.st102{filter:url(#Adobe_OpacityMaskFilter_22_);}
	.st103{opacity:0.75;mask:url(#SVGID_51_);}
	.st104{filter:url(#Adobe_OpacityMaskFilter_23_);}
	.st105{opacity:0.75;mask:url(#SVGID_52_);}
	.st106{filter:url(#Adobe_OpacityMaskFilter_24_);}
	.st107{opacity:0.75;mask:url(#SVGID_53_);}
	.st108{filter:url(#Adobe_OpacityMaskFilter_25_);}
	.st109{opacity:0.75;mask:url(#SVGID_54_);}
	.st110{stroke:#000000;stroke-width:3;stroke-miterlimit:10;}
	.st111{fill:url(#SVGID_55_);stroke:#FFFFFF;stroke-width:2.032837e-02;stroke-miterlimit:10;}
	.st112{fill:url(#SVGID_56_);}
	.st113{fill:url(#SVGID_57_);}
	.st114{fill:url(#SVGID_58_);}
	.st115{filter:url(#Adobe_OpacityMaskFilter_26_);}
	.st116{opacity:0.79;mask:url(#SVGID_59_);}
	.st117{fill:url(#SVGID_60_);}
	.st118{filter:url(#Adobe_OpacityMaskFilter_27_);}
	.st119{opacity:0.79;mask:url(#SVGID_61_);}
	.st120{fill:url(#SVGID_62_);}
	.st121{filter:url(#Adobe_OpacityMaskFilter_28_);}
	.st122{opacity:0.79;mask:url(#SVGID_63_);}
	.st123{fill:#CECECE;stroke:#FFFFFF;stroke-width:0.1077;stroke-miterlimit:10;}
	.st124{fill:url(#SVGID_64_);}
	.st125{fill:url(#SVGID_65_);}
	.st126{fill:none;stroke:#FFFFFF;stroke-width:1.375204e-02;stroke-miterlimit:10;}
	.st127{filter:url(#Adobe_OpacityMaskFilter_29_);}
	.st128{opacity:0.64;mask:url(#SVGID_66_);}
	.st129{fill:none;stroke:#686868;stroke-width:1.375204e-02;stroke-miterlimit:10;}
	.st130{fill:none;stroke:#8D8D8E;stroke-width:3;stroke-miterlimit:10;}
	.st131{fill:url(#SVGID_67_);stroke:#FFFFFF;stroke-width:1.375204e-02;stroke-miterlimit:10;}
	.st132{fill:url(#SVGID_68_);}
	.st133{fill:url(#SVGID_69_);}
	.st134{filter:url(#Adobe_OpacityMaskFilter_30_);}
	.st135{opacity:0.64;mask:url(#SVGID_70_);}
	.st136{fill:url(#SVGID_71_);stroke:#FFFFFF;stroke-width:1.375204e-02;stroke-miterlimit:10;}
	.st137{clip-path:url(#SVGID_73_);}
	.st138{fill:url(#SVGID_74_);}
	.st139{fill:url(#SVGID_75_);}
	.st140{filter:url(#Adobe_OpacityMaskFilter_31_);}
	.st141{opacity:0.64;mask:url(#SVGID_76_);}
	.st142{fill:url(#SVGID_77_);stroke:#FFFFFF;stroke-width:1.375204e-02;stroke-miterlimit:10;}
	.st143{fill:url(#SVGID_78_);stroke:#FFFFFF;stroke-width:2.032837e-02;stroke-miterlimit:10;}
	.st144{fill:url(#SVGID_79_);}
	.st145{filter:url(#Adobe_OpacityMaskFilter_32_);}
	.st146{opacity:0.79;mask:url(#SVGID_80_);}
	.st147{fill:url(#SVGID_81_);}
	.st148{filter:url(#Adobe_OpacityMaskFilter_33_);}
	.st149{opacity:0.79;mask:url(#SVGID_82_);}
	.st150{fill:url(#SVGID_83_);}
	.st151{filter:url(#Adobe_OpacityMaskFilter_34_);}
	.st152{opacity:0.79;mask:url(#SVGID_84_);}
	.st153{fill:url(#SVGID_85_);}
	.st154{fill:url(#SVGID_86_);}
	.st155{filter:url(#Adobe_OpacityMaskFilter_35_);}
	.st156{opacity:0.79;mask:url(#SVGID_87_);}
	.st157{fill:url(#SVGID_88_);}
	.st158{filter:url(#Adobe_OpacityMaskFilter_36_);}
	.st159{opacity:0.64;mask:url(#SVGID_89_);}
	.st160{fill:none;stroke:#AFAFAF;stroke-width:1.0426;stroke-miterlimit:10;}
	.st161{fill:#FFFFFF;stroke:#6D6D6D;stroke-width:0.1689;stroke-miterlimit:10;}
	.st162{fill:#CECECE;stroke:#FFFFFF;stroke-width:0.1624;stroke-miterlimit:10;}
	.st163{fill:url(#SVGID_90_);stroke:#FFFFFF;stroke-width:2.032837e-02;stroke-miterlimit:10;}
	.st164{fill:url(#SVGID_91_);stroke:#FFFFFF;stroke-width:1.112710e-02;stroke-miterlimit:10;}
	.st165{fill:url(#SVGID_92_);}
	.st166{filter:url(#Adobe_OpacityMaskFilter_37_);}
	.st167{opacity:0.79;mask:url(#SVGID_93_);}
	.st168{fill:url(#SVGID_94_);}
	.st169{filter:url(#Adobe_OpacityMaskFilter_38_);}
	.st170{opacity:0.79;mask:url(#SVGID_95_);}
	.st171{fill:url(#SVGID_96_);}
	.st172{filter:url(#Adobe_OpacityMaskFilter_39_);}
	.st173{opacity:0.79;mask:url(#SVGID_97_);}
	.st174{fill:url(#SVGID_98_);}
	.st175{fill:#918CAA;stroke:#FFFFFF;stroke-width:0.6987;stroke-miterlimit:10;}
	.st176{filter:url(#Adobe_OpacityMaskFilter_40_);}
	.st177{opacity:0.64;mask:url(#SVGID_99_);}
	.st178{fill:url(#SVGID_100_);}
	.st179{fill:none;stroke:#FFFFFF;stroke-width:6.924961e-03;stroke-miterlimit:10;}
	.st180{filter:url(#Adobe_OpacityMaskFilter_41_);}
	.st181{opacity:0.64;mask:url(#SVGID_101_);}
	.st182{fill:none;stroke:#686868;stroke-width:6.924961e-03;stroke-miterlimit:10;}
	.st183{fill:url(#SVGID_102_);}
	.st184{filter:url(#Adobe_OpacityMaskFilter_42_);}
	.st185{opacity:0.64;mask:url(#SVGID_103_);}
	.st186{fill:url(#SVGID_104_);}
	.st187{filter:url(#Adobe_OpacityMaskFilter_43_);}
	.st188{opacity:0.64;mask:url(#SVGID_105_);}
	.st189{fill:url(#SVGID_106_);}
	.st190{filter:url(#Adobe_OpacityMaskFilter_44_);}
	.st191{opacity:0.64;mask:url(#SVGID_107_);}
	.st192{fill:url(#SVGID_108_);}
	.st193{filter:url(#Adobe_OpacityMaskFilter_45_);}
	.st194{opacity:0.79;mask:url(#SVGID_109_);}
	.st195{fill:url(#SVGID_110_);}
	.st196{filter:url(#Adobe_OpacityMaskFilter_46_);}
	.st197{opacity:0.64;mask:url(#SVGID_111_);}
	.st198{fill:url(#SVGID_112_);stroke:#FFFFFF;stroke-width:2.032837e-02;stroke-miterlimit:10;}
	.st199{fill:url(#SVGID_113_);stroke:#FFFFFF;stroke-width:1.112710e-02;stroke-miterlimit:10;}
	.st200{fill:url(#SVGID_114_);}
	.st201{filter:url(#Adobe_OpacityMaskFilter_47_);}
	.st202{opacity:0.79;mask:url(#SVGID_115_);}
	.st203{fill:url(#SVGID_116_);}
	.st204{filter:url(#Adobe_OpacityMaskFilter_48_);}
	.st205{opacity:0.79;mask:url(#SVGID_117_);}
	.st206{fill:url(#SVGID_118_);}
	.st207{filter:url(#Adobe_OpacityMaskFilter_49_);}
	.st208{opacity:0.79;mask:url(#SVGID_119_);}
	.st209{fill:url(#SVGID_120_);}
	.st210{fill:#6E6CE5;}
	.st211{filter:url(#Adobe_OpacityMaskFilter_50_);}
	.st212{opacity:0.64;mask:url(#SVGID_121_);}
	.st213{fill:url(#SVGID_122_);}
	.st214{filter:url(#Adobe_OpacityMaskFilter_51_);}
	.st215{opacity:0.64;mask:url(#SVGID_123_);}
	.st216{fill:url(#SVGID_124_);}
	.st217{filter:url(#Adobe_OpacityMaskFilter_52_);}
	.st218{opacity:0.64;mask:url(#SVGID_125_);}
	.st219{fill:url(#SVGID_126_);}
	.st220{filter:url(#Adobe_OpacityMaskFilter_53_);}
	.st221{opacity:0.64;mask:url(#SVGID_127_);}
	.st222{fill:url(#SVGID_128_);}
	.st223{filter:url(#Adobe_OpacityMaskFilter_54_);}
	.st224{opacity:0.64;mask:url(#SVGID_129_);}
	.st225{fill:url(#SVGID_130_);stroke:#FFFFFF;stroke-width:1.112710e-02;stroke-miterlimit:10;}
	.st226{fill:url(#SVGID_131_);}
	.st227{filter:url(#Adobe_OpacityMaskFilter_55_);}
	.st228{opacity:0.64;mask:url(#SVGID_132_);}
	.st229{fill:url(#SVGID_133_);}
	.st230{filter:url(#Adobe_OpacityMaskFilter_56_);}
	.st231{opacity:0.64;mask:url(#SVGID_134_);}
	.st232{fill:url(#SVGID_135_);}
	.st233{filter:url(#Adobe_OpacityMaskFilter_57_);}
	.st234{opacity:0.64;mask:url(#SVGID_136_);}
	.st235{fill:url(#SVGID_137_);}
	.st236{filter:url(#Adobe_OpacityMaskFilter_58_);}
	.st237{opacity:0.64;mask:url(#SVGID_138_);}
	.st238{opacity:0.67;fill:#FFFFFF;}
</style>
<g>
	<g>
		<path class="st42" d="M27.5,20.4c0.7,1.2,2.3,1.7,3.6,0.9c1.2-0.7,1.7-2.3,0.9-3.6l0,0l-5.4-9.4c-0.8-1.2-2.4-1.5-3.6-0.7
			c-1.1,0.7-1.5,2.2-0.9,3.3L27.5,20.4z"/>
		<path class="st42" d="M29.8,23.2c-1.4,0-2.8-0.7-3.6-2l-5.4-9.4c-1-1.9-0.4-4.2,1.4-5.3c0.9-0.6,2-0.8,3.1-0.6
			c1.1,0.2,2,0.8,2.6,1.8l5.5,9.5c1.1,2,0.5,4.5-1.5,5.6C31.2,23,30.5,23.2,29.8,23.2z M24.4,8.8c-0.2,0-0.4,0.1-0.6,0.2
			c-0.5,0.3-0.6,0.9-0.4,1.4l5.4,9.3c0.3,0.5,1,0.7,1.5,0.4c0.5-0.3,0.7-1,0.4-1.5l-5.4-9.4c-0.1-0.2-0.4-0.3-0.7-0.4
			C24.6,8.8,24.5,8.8,24.4,8.8z"/>
	</g>
	<g>
		<path class="st42" d="M7.6,27.5l9.4,5.4c1.2,0.9,2.8,0.6,3.6-0.6s0.6-2.8-0.6-3.6c-0.2-0.1-0.3-0.2-0.5-0.3L10.2,23
			c-1.2-0.9-2.8-0.6-3.6,0.6c-0.9,1.2-0.6,2.8,0.6,3.6C7.2,27.3,7.4,27.4,7.6,27.5z"/>
		<path class="st42" d="M18.5,34.9c-0.8,0-1.6-0.2-2.4-0.7l-9.3-5.4c-0.2-0.1-0.5-0.3-0.7-0.4c-0.9-0.7-1.5-1.6-1.6-2.7
			c-0.2-1.1,0.1-2.2,0.8-3.1S6.9,21.2,8,21c1.1-0.2,2.1,0.1,3,0.7l9.3,5.4c0.2,0.1,0.5,0.3,0.7,0.4c0.9,0.7,1.5,1.6,1.6,2.7
			c0.2,1.1-0.1,2.2-0.8,3.1C21,34.3,19.8,34.9,18.5,34.9z M8.6,24c-0.1,0-0.1,0-0.2,0c-0.3,0-0.5,0.2-0.7,0.4
			c-0.2,0.2-0.2,0.5-0.2,0.8c0,0.3,0.2,0.5,0.4,0.7c0.1,0,0.1,0.1,0.2,0.1l0.1,0.1l9.5,5.5c0.5,0.4,1.2,0.3,1.5-0.2
			c0.2-0.2,0.2-0.5,0.2-0.8c0-0.3-0.2-0.5-0.4-0.7c-0.1,0-0.1-0.1-0.2-0.1l-0.1-0.1l-9.5-5.5C9.1,24,8.9,24,8.6,24z"/>
	</g>
	<g>
		<path class="st42" d="M3.4,49.4h10.4c1.4-0.1,2.4-1.3,2.3-2.7c-0.1-1.3-1.1-2.3-2.3-2.3H3.4C2,44.5,1,45.7,1,47
			C1.1,48.3,2.1,49.3,3.4,49.4z"/>
		<path class="st42" d="M3.4,50.9L3.4,50.9c-2.1-0.1-3.7-1.7-3.8-3.7c-0.1-2.2,1.5-4.1,3.7-4.2l10.5,0c2.1,0.1,3.7,1.7,3.8,3.8
			c0.1,1.1-0.3,2.1-1,2.9s-1.7,1.3-2.8,1.3L3.4,50.9z M3.4,47.9h10.4c0.2,0,0.4-0.1,0.6-0.3c0.2-0.2,0.3-0.5,0.2-0.7
			c0-0.5-0.4-0.9-0.9-0.9l-10.3,0c-0.5,0-0.9,0.5-0.8,1.1C2.6,47.4,3,47.8,3.4,47.9z"/>
	</g>
	<g>
		<path class="st42" d="M20.5,60.8c-0.7-1.3-2.3-1.7-3.5-1c0,0,0,0,0,0l-9.4,5.5c-1.3,0.6-1.8,2.2-1.2,3.5s2.2,1.8,3.5,1.2
			c0.1-0.1,0.2-0.1,0.3-0.2l9.4-5.4C20.8,63.6,21.2,62.1,20.5,60.8z"/>
		<path class="st42" d="M8.7,71.8c-1.5,0-3-0.9-3.7-2.3c-1-2-0.1-4.5,1.9-5.5l9.4-5.5c1-0.5,2.1-0.7,3.1-0.4c1.1,0.3,1.9,1,2.5,1.9
			c1.1,1.9,0.4,4.4-1.5,5.6L11,71.1c-0.2,0.1-0.3,0.2-0.5,0.3C9.9,71.6,9.3,71.8,8.7,71.8z M17.7,61.1l-0.1,0.1l-9.4,5.5
			c-0.5,0.3-0.8,0.9-0.5,1.5c0.1,0.3,0.4,0.5,0.6,0.6c0.3,0.1,0.6,0.1,0.8,0c0,0,0.1,0,0.1-0.1l0.1-0.1l9.4-5.4
			c0.5-0.3,0.7-1,0.4-1.5l0,0c-0.1-0.3-0.4-0.4-0.7-0.5C18.3,61,18,61,17.7,61.1z"/>
	</g>
	<g>
		<path class="st42" d="M23,85.3c1.3,0.7,2.8,0.3,3.6-1c0,0,0,0,0,0l5.4-9.4c0.9-1.2,0.6-2.8-0.6-3.6c-1.2-0.9-2.8-0.6-3.6,0.6
			c-0.1,0.2-0.2,0.3-0.3,0.5l-5.4,9.4C21.4,83,21.8,84.6,23,85.3C23,85.3,23,85.3,23,85.3z"/>
		<path class="st42" d="M24.3,87.2c-0.7,0-1.4-0.2-2-0.5l-0.1,0c-0.9-0.6-1.6-1.5-1.9-2.5c-0.3-1.1-0.1-2.2,0.5-3.1l5.4-9.3
			c0.1-0.2,0.3-0.5,0.4-0.7c0.7-0.9,1.6-1.5,2.7-1.6c1.1-0.2,2.2,0.1,3.1,0.8c0.9,0.6,1.5,1.6,1.6,2.7c0.2,1.1-0.1,2.1-0.7,3
			l-5.4,9.3C27.1,86.4,25.8,87.2,24.3,87.2z M23.8,84c0.5,0.3,1.2,0.1,1.5-0.4l0.1-0.1l5.5-9.4c0.2-0.2,0.2-0.5,0.2-0.8
			c0-0.3-0.2-0.5-0.4-0.7c-0.2-0.2-0.5-0.2-0.8-0.2c-0.3,0-0.5,0.2-0.7,0.4c0,0.1-0.1,0.1-0.1,0.2l-0.1,0.1l-5.4,9.4
			c-0.2,0.3-0.2,0.6-0.1,0.9C23.4,83.6,23.5,83.9,23.8,84L23.8,84z"/>
	</g>
	<g>
		<path class="st42" d="M43.5,78.1l0,10.2c0,1.3,1,2.5,2.3,2.7c1.5,0.1,2.7-1,2.7-2.5l0-10.2c0-1.3-1-2.5-2.3-2.7
			C44.8,75.5,43.5,76.6,43.5,78.1z"/>
		<path class="st42" d="M46,92.5c-0.1,0-0.2,0-0.3,0c-2-0.2-3.6-2-3.6-4.2V78.1c0-1.1,0.5-2.2,1.3-2.9c0.8-0.8,1.9-1.1,3.1-1
			c2,0.2,3.6,2,3.6,4.2v10.2c0,1.1-0.5,2.2-1.3,2.9C48,92.1,47,92.5,46,92.5z M46,77.1c-0.3,0-0.6,0.2-0.7,0.3
			c-0.2,0.2-0.3,0.5-0.3,0.7v10.2c0,0.6,0.4,1.1,0.9,1.2c0.4,0,0.6-0.1,0.8-0.3c0.2-0.2,0.3-0.5,0.3-0.7V78.3
			C47,77.7,46.6,77.2,46,77.1C46.1,77.1,46.1,77.1,46,77.1z"/>
	</g>
	<g>
		<path class="st42" d="M64.4,84.3c0.6,1.3,2.2,1.8,3.5,1.2c1.3-0.6,1.8-2.2,1.2-3.5c0-0.1-0.1-0.2-0.2-0.3l-5.4-9.4
			c-0.6-1.3-2.2-1.8-3.5-1.2c-1.3,0.6-1.8,2.2-1.2,3.5c0,0.1,0.1,0.2,0.2,0.3L64.4,84.3z"/>
		<path class="st42" d="M66.8,87.3c-1.5,0-2.9-0.8-3.7-2.2l-5.4-9.3c0-0.1-0.1-0.2-0.2-0.3c-1-2-0.2-4.5,1.8-5.5
			c2-1,4.5-0.2,5.5,1.8l5.4,9.3c0,0.1,0.1,0.2,0.2,0.4c0.5,1,0.6,2.1,0.2,3.1c-0.3,1-1.1,1.9-2.1,2.4C68,87.1,67.4,87.3,66.8,87.3z
			 M61.2,72.4c-0.2,0-0.3,0-0.5,0.1c-0.5,0.3-0.8,0.9-0.5,1.5c0,0,0,0.1,0.1,0.1l5.5,9.5c0.3,0.5,0.9,0.8,1.5,0.5
			c0.3-0.1,0.5-0.4,0.6-0.6c0.1-0.3,0.1-0.6-0.1-0.8c0,0,0-0.1-0.1-0.1l-5.5-9.5C62,72.7,61.6,72.4,61.2,72.4z"/>
	</g>
	<g>
		<path class="st42" d="M71.5,64.4l9.4,5.4c1.2,0.9,2.8,0.6,3.6-0.6c0.9-1.2,0.6-2.8-0.6-3.6c-0.2-0.1-0.3-0.2-0.5-0.3l-9.4-5.4
			c-1.2-0.9-2.8-0.6-3.6,0.6c-0.9,1.2-0.6,2.8,0.6,3.6C71.2,64.2,71.3,64.3,71.5,64.4z"/>
		<path class="st42" d="M82.4,71.8c-0.8,0-1.6-0.2-2.4-0.7l-9.3-5.4c-0.2-0.1-0.5-0.3-0.7-0.4c-1.8-1.3-2.2-3.9-0.9-5.7
			c1.3-1.8,3.8-2.2,5.7-0.9l9.3,5.4c0.2,0.1,0.5,0.3,0.7,0.4c1.8,1.3,2.2,3.9,0.9,5.7C84.9,71.2,83.7,71.8,82.4,71.8z M72.5,60.9
			c-0.3,0-0.7,0.2-0.9,0.5c-0.4,0.5-0.3,1.2,0.2,1.5c0.1,0,0.1,0.1,0.2,0.1l0.1,0.1l9.5,5.5c0.5,0.4,1.2,0.3,1.5-0.2
			c0.4-0.5,0.3-1.2-0.2-1.5c-0.1,0-0.1-0.1-0.2-0.1l-0.1-0.1l-9.5-5.5C73,60.9,72.8,60.9,72.5,60.9z"/>
	</g>
	<g>
		<path class="st42" d="M74.8,46.9c0,1.4,1.1,2.5,2.5,2.5h10.4c1.4-0.1,2.4-1.3,2.3-2.7c-0.1-1.3-1.1-2.3-2.3-2.3H77.2
			C75.9,44.4,74.8,45.5,74.8,46.9z"/>
		<path class="st42" d="M77.2,50.9c-2.2,0-4-1.8-4-4v0c0-2.2,1.8-4,4-4h10.4c2.1,0.1,3.7,1.7,3.8,3.8c0.1,1.1-0.3,2.1-1,2.9
			c-0.7,0.8-1.7,1.3-2.8,1.3L77.2,50.9z M76.3,46.9c0,0.5,0.4,1,1,1h10.4c0.2,0,0.4-0.1,0.6-0.3c0.2-0.2,0.3-0.5,0.2-0.7
			c0-0.5-0.4-0.9-0.9-0.9l-10.3,0C76.7,45.9,76.3,46.3,76.3,46.9z"/>
	</g>
	<g>
		<path class="st42" d="M74.1,32.9l9.4-5.4c1.3-0.6,1.8-2.2,1.2-3.5c-0.6-1.3-2.2-1.8-3.5-1.2c-0.1,0.1-0.2,0.1-0.3,0.2l-9.4,5.4
			c-1.3,0.6-1.8,2.2-1.2,3.5c0.6,1.3,2.2,1.8,3.5,1.2C73.9,33,74,33,74.1,32.9L74.1,32.9z"/>
		<path class="st42" d="M72.6,34.9c-0.5,0-0.9-0.1-1.4-0.2c-1-0.4-1.9-1.1-2.3-2.1c-1-2-0.1-4.5,1.9-5.5l9.3-5.4
			c0.2-0.1,0.3-0.2,0.5-0.3c1-0.5,2.1-0.5,3.1-0.2c1,0.4,1.9,1.1,2.3,2.1c1,2,0.1,4.5-1.9,5.5l-9.3,5.4c-0.2,0.1-0.3,0.2-0.5,0.3
			C73.8,34.7,73.2,34.9,72.6,34.9z M82.3,24c-0.2,0-0.3,0-0.5,0.1c0,0-0.1,0.1-0.1,0.1l-0.1,0.1l-9.5,5.5c-0.5,0.3-0.8,0.9-0.5,1.5
			c0.1,0.3,0.4,0.5,0.6,0.6c0.3,0.1,0.6,0.1,0.8,0c0,0,0,0,0,0l0,0l0.2-0.1l9.5-5.5c0.5-0.3,0.8-0.9,0.5-1.5
			c-0.1-0.3-0.4-0.5-0.6-0.6C82.6,24,82.5,24,82.3,24z"/>
	</g>
	<g>
		<path class="st42" d="M60,21.3c1.2,0.7,2.8,0.3,3.5-0.9l5.4-9.4c0.6-1.3,0-2.9-1.3-3.4c-1.1-0.5-2.4-0.1-3.1,0.8L59,17.8
			C58.3,19.1,58.7,20.6,60,21.3z"/>
		<path class="st42" d="M61.2,23.2c-0.7,0-1.4-0.2-2-0.5l0,0c-1.9-1.1-2.6-3.6-1.5-5.6l5.5-9.5c1.1-1.6,3.2-2.1,5-1.3
			c2.1,0.9,3,3.3,2.1,5.4l-0.1,0.1l-5.4,9.4C64,22.5,62.6,23.2,61.2,23.2z M60.7,20c0.5,0.3,1.2,0.1,1.5-0.4l5.4-9.3
			C67.8,9.8,67.5,9.2,67,9c-0.5-0.2-1-0.1-1.3,0.3l-5.4,9.3C60,19.1,60.2,19.7,60.7,20z"/>
	</g>
	<g>
		<path class="st42" d="M47.5,14.5l0-10c0-1.3-1-2.5-2.3-2.7c-1.5-0.1-2.7,1-2.7,2.5v10.4c0,1.5,1.2,2.6,2.7,2.5
			C46.6,17,47.5,15.8,47.5,14.5z"/>
		<path class="st42" d="M45,18.6c-1,0-2-0.4-2.7-1c-0.8-0.8-1.3-1.8-1.3-2.9V4.3c0-1.1,0.5-2.2,1.3-2.9c0.8-0.8,1.9-1.1,3.1-1
			c2,0.2,3.6,2,3.6,4.2v10c0,2.2-1.6,4-3.6,4.2C45.3,18.6,45.1,18.6,45,18.6z M45,3.3c-0.3,0-0.6,0.2-0.7,0.3C44.1,3.7,44,4,44,4.3
			v10.4c0,0.3,0.1,0.5,0.3,0.7c0.1,0.1,0.4,0.3,0.8,0.3c0.5,0,0.9-0.6,0.9-1.2v-10C46,3.8,45.6,3.3,45,3.3C45.1,3.3,45.1,3.3,45,3.3
			z"/>
	</g>
	<g>
		<path class="st42" d="M69,46.4c0-13-10.5-23.5-23.5-23.5S22,33.4,22,46.4s10.5,23.5,23.5,23.5C58.5,69.8,69,59.3,69,46.4z
			 M45.5,65.9C34.8,65.9,26,57.1,26,46.4s8.7-19.5,19.5-19.5S65,35.6,65,46.4C65,57.1,56.3,65.8,45.5,65.9z"/>
		<path class="st42" d="M45.5,71.4c-13.8,0-25-11.2-25-25s11.2-25,25-25s25,11.2,25,25v0C70.5,60.1,59.3,71.3,45.5,71.4z M45.5,24.4
			c-12.1,0-22,9.9-22,22c0,12.1,9.9,22,22,22c12.1,0,22-9.9,22-22C67.5,34.3,57.6,24.4,45.5,24.4z M45.5,67.4L45.5,67.4
			c-11.6,0-21-9.4-21-21s9.4-21,21-21s21,9.4,21,21C66.5,57.9,57.1,67.3,45.5,67.4z M45.5,28.4c-9.9,0-18,8.1-18,18
			c0,9.9,8.1,18,18,18c9.9,0,18-8.1,18-18C63.5,36.5,55.4,28.4,45.5,28.4z"/>
	</g>
</g>
</svg>
